<svg baseProfile="full" height="28" version="1.1" viewBox="0 0 248 28" width="248" xmlns="http://www.w3.org/2000/svg" xmlns:ev="http://www.w3.org/2001/xml-events" xmlns:xlink="http://www.w3.org/1999/xlink"><defs /><g transform="translate(-0.0, -3.919974912160557)"><path d="M 12.5,15.625 L 21.875,15.625 L 21.875,12.5 C 21.875,11.63672 22.57422,10.9375 23.4375,10.9375 C 24.30078,10.9375 25.0,11.63672 25.0,12.5 L 25.0,15.625 L 75.0,15.625 L 75.0,12.5 C 75.0,11.63672 75.69922,10.9375 76.5625,10.9375 C 77.42578,10.9375 78.125,11.63672 78.125,12.5 L 78.125,15.625 L 87.5,15.625 L 87.5,12.5 C 87.5,11.63672 88.19922,10.9375 89.0625,10.9375 C 89.92578,10.9375 90.625,11.63672 90.625,12.5 L 90.625,15.625 L 96.875,15.625 C 98.6016,15.625 100.0,17.0234 100.0,18.75 L 100.0,85.938 C 100.0,87.66460000000001 98.6016,89.063 96.875,89.063 L 3.125,89.063 C 1.3984,89.063 0.0,87.66460000000001 0.0,85.938 L 0.0,18.75 C 0.0,17.0234 1.3984,15.625 3.125,15.625 L 9.375,15.625 L 9.375,12.5 C 9.375,11.63672 10.07422,10.9375 10.9375,10.9375 C 11.80078,10.9375 12.5,11.63672 12.5,12.5 L 12.5,15.625 M 9.375,19.0156 C 7.5547,19.66013 6.25,21.3984 6.25,23.4375 C 6.25,26.0273 8.3477,28.125 10.9375,28.125 C 13.5273,28.125 15.625,26.0273 15.625,23.4375 C 15.625,21.3984 14.3203,19.6602 12.5,19.0156 L 12.5,21.875 C 12.5,22.73828 11.80078,23.4375 10.9375,23.4375 C 10.07422,23.4375 9.375,22.73828 9.375,21.875 L 9.375,19.0156 M 21.875,19.0156 C 20.0547,19.66013 18.75,21.3984 18.75,23.4375 C 18.75,26.0273 20.8477,28.125 23.4375,28.125 C 26.0273,28.125 28.125,26.0273 28.125,23.4375 C 28.125,21.3984 26.8203,19.6602 25.0,19.0156 L 25.0,21.875 C 25.0,22.73828 24.30078,23.4375 23.4375,23.4375 C 22.57422,23.4375 21.875,22.73828 21.875,21.875 L 21.875,19.0156 M 75.0,19.0156 C 73.1797,19.66013 71.875,21.3984 71.875,23.4375 C 71.875,26.0273 73.9727,28.125 76.5625,28.125 C 79.1523,28.125 81.25,26.0273 81.25,23.4375 C 81.25,21.3984 79.9453,19.6602 78.125,19.0156 L 78.125,21.875 C 78.125,22.73828 77.42578,23.4375 76.5625,23.4375 C 75.69922,23.4375 75.0,22.73828 75.0,21.875 L 75.0,19.0156 M 87.5,19.0156 C 85.6797,19.66013 84.375,21.3984 84.375,23.4375 C 84.375,26.0273 86.4727,28.125 89.0625,28.125 C 91.6523,28.125 93.75,26.0273 93.75,23.4375 C 93.75,21.3984 92.4453,19.6602 90.625,19.0156 L 90.625,21.875 C 90.625,22.73828 89.92578,23.4375 89.0625,23.4375 C 88.19922,23.4375 87.5,22.73828 87.5,21.875 L 87.5,19.0156 M 78.125,42.1876 C 78.125,40.461000000000006 76.7266,39.0626 75.0,39.0626 L 25.0,39.0626 C 23.2734,39.0626 21.875,40.461000000000006 21.875,42.1876 L 21.875,62.4996 C 21.875,64.2262 23.2734,65.6246 25.0,65.6246 L 75.0,65.6246 C 76.7266,65.6246 78.125,64.2262 78.125,62.4996 L 78.125,42.1876 M 70.3125,47.2423 L 70.3125,49.6329 C 70.3125,49.83603 69.3008,50.00009 68.0547,50.00009 L 31.945699999999995,50.00009 C 30.699599999999997,50.00009 29.687899999999996,49.83603 29.687899999999996,49.6329 L 29.687899999999996,47.2423 C 29.687899999999996,47.03917 30.699599999999997,46.87511 31.945699999999995,46.87511 L 68.0547,46.87511 C 69.3008,46.87511 70.3125,47.03917 70.3125,47.2423 M 70.3125,53.4923 L 70.3125,55.8829 C 70.3125,56.08603 69.3008,56.25009 68.0547,56.25009 L 31.945699999999995,56.25009 C 30.699599999999997,56.25009 29.687899999999996,56.08603 29.687899999999996,55.8829 L 29.687899999999996,53.4923 C 29.687899999999996,53.28917 30.699599999999997,53.12511 31.945699999999995,53.12511 L 68.0547,53.12511 C 69.3008,53.12511 70.3125,53.28917 70.3125,53.4923" fill="rgb(255,255,255)" transform="scale(0.35839770625467976)" /><path d="M0.5057471264367817 18.96551724137931Q0.5057471264367817 17.144827586206894 0.5057471264367817 15.324137931034482Q0.5057471264367817 13.503448275862068 0.5057471264367817 11.682758620689654Q0.5057471264367817 9.86206896551724 0.5057471264367817 8.041379310344826Q0.5057471264367817 6.2206896551724125 0.5057471264367817 4.399999999999999Q0.5057471264367817 3.2873563218390807 0.5057471264367817 2.187356321839081Q0.5057471264367817 1.0873563218390814 0.5057471264367817 0.0H11.0Q11.0 2.4528735632183896 11.0 4.893103448275861Q11.0 7.333333333333332 11.0 9.786206896551723Q11.0 11.303448275862069 11.0 12.833333333333332Q11.0 14.363218390804597 11.0 15.89310344827586Q11.0 17.422988505747124 11.0 18.96551724137931Z M23.44137931034483 18.96551724137931Q23.44137931034483 16.99310344827586 23.44137931034483 14.970114942528735Q23.44137931034483 12.947126436781609 23.44137931034483 10.97471264367816Q23.44137931034483 10.241379310344827 23.07471264367816 9.937931034482759Q22.708045977011494 9.634482758620688 22.202298850574714 9.60919540229885Q21.696551724137933 9.583908045977012 21.279310344827586 9.735632183908045Q20.862068965517242 9.88735632183908 20.760919540229885 10.039080459770114L22.783908045977014 3.540229885057471Q23.69425287356322 3.1356321839080454 24.731034482758623 2.9333333333333327Q25.767816091954025 2.73103448275862 26.779310344827586 2.73103448275862Q28.195402298850574 2.73103448275862 29.42183908045977 3.186206896551724Q30.648275862068964 3.6413793103448278 31.419540229885058 4.627586206896551Q32.19080459770115 5.613793103448275 32.19080459770115 7.257471264367815V18.96551724137931ZM12.011494252873565 18.96551724137931Q12.011494252873565 17.347126436781608 12.011494252873565 15.716091954022987Q12.011494252873565 14.085057471264367 12.011494252873565 12.454022988505747Q12.011494252873565 10.822988505747126 12.011494252873565 9.204597701149424Q12.011494252873565 7.712643678160919 12.011494252873565 6.233333333333333Q12.011494252873565 4.7540229885057474 12.011494252873565 3.2873563218390807Q13.47816091954023 3.2873563218390807 14.932183908045978 3.2873563218390807Q16.386206896551727 3.2873563218390807 17.85287356321839 3.2873563218390807Q19.319540229885057 3.2873563218390807 20.760919540229885 3.2873563218390807Q20.760919540229885 4.197701149425287 20.760919540229885 5.019540229885057Q20.760919540229885 5.841379310344827 20.760919540229885 6.663218390804597Q20.760919540229885 7.485057471264367 20.760919540229885 8.306896551724137Q20.760919540229885 9.128735632183908 20.760919540229885 10.039080459770114Q20.760919540229885 10.367816091954023 20.760919540229885 10.683908045977011Q20.760919540229885 11.0 20.760919540229885 11.354022988505747Q20.760919540229885 13.22528735632184 20.760919540229885 15.197701149425287Q20.760919540229885 17.170114942528734 20.760919540229885 18.96551724137931Z M41.90114942528736 10.165517241379309Q42.204597701149424 9.002298850574713 42.49540229885058 7.864367816091954Q42.786206896551725 6.726436781609195 43.07701149425287 5.575862068965517Q43.367816091954026 4.425287356321839 43.64597701149425 3.2873563218390807H48.57701149425287V10.165517241379309ZM33.227586206896554 12.36551724137931Q33.227586206896554 10.190804597701149 33.227586206896554 7.788505747126436Q33.227586206896554 5.386206896551723 33.227586206896554 3.2367816091954023L41.87586206896552 1.163218390804598Q41.87586206896552 2.402298850574713 41.87586206896552 3.6919540229885053Q41.87586206896552 4.981609195402298 41.87586206896552 6.271264367816091Q41.87586206896552 7.206896551724137 41.87586206896552 8.142528735632183Q41.87586206896552 9.07816091954023 41.87586206896552 9.988505747126435Q41.87586206896552 10.013793103448275 41.87586206896552 10.013793103448275Q41.87586206896552 10.013793103448275 41.87586206896552 10.039080459770114Q41.87586206896552 10.519540229885056 42.09080459770115 10.873563218390803Q42.305747126436785 11.22758620689655 42.697701149425285 11.467816091954022Q43.08965517241379 11.708045977011494 43.62068965517241 11.83448275862069Q44.15172413793103 11.960919540229884 44.809195402298855 11.960919540229884Q45.54252873563219 11.960919540229884 46.30114942528736 11.733333333333333Q47.05977011494253 11.50574712643678 47.679310344827584 11.101149425287355Q48.298850574712645 10.69655172413793 48.57701149425287 10.165517241379309V17.85287356321839Q47.48965517241379 18.71264367816092 45.770114942528735 19.129885057471263Q44.05057471264368 19.547126436781607 42.331034482758625 19.547126436781607Q39.726436781609195 19.547126436781607 37.665517241379305 18.7Q35.60459770114942 17.85287356321839 34.41609195402299 16.24712643678161Q33.227586206896554 14.641379310344828 33.227586206896554 12.36551724137931Z M60.76551724137931 13.250574712643678Q62.10574712643678 13.250574712643678 62.839080459770116 12.770114942528735Q63.57241379310344 12.289655172413791 63.59770114942528 11.455172413793104L71.41149425287355 14.00919540229885Q70.95632183908046 15.602298850574712 69.47701149425288 16.904597701149427Q67.99770114942528 18.20689655172414 65.7471264367816 18.96551724137931Q63.49655172413793 19.72413793103448 60.714942528735634 19.72413793103448Q58.33793103448276 19.72413793103448 56.277011494252875 19.19310344827586Q54.216091954022986 18.66206896551724 52.660919540229884 17.58735632183908Q51.10574712643678 16.51264367816092 50.220689655172414 14.894252873563218Q49.33563218390805 13.275862068965516 49.33563218390805 11.126436781609195Q49.33563218390805 8.977011494252872 50.220689655172414 7.358620689655171Q51.10574712643678 5.74022988505747 52.660919540229884 4.66551724137931Q54.216091954022986 3.5908045977011493 56.28965517241379 3.059770114942528Q58.3632183908046 2.5287356321839063 60.714942528735634 2.5287356321839063Q63.11724137931034 2.5287356321839063 65.12758620689655 3.059770114942528Q67.13793103448276 3.5908045977011493 68.5919540229885 4.690804597701149Q70.04597701149424 5.790804597701149 70.84252873563219 7.472413793103447Q71.63908045977011 9.154022988505746 71.63908045977011 11.455172413793104H57.85747126436782Q57.85747126436782 11.455172413793104 57.8448275862069 11.455172413793104Q57.83218390804598 11.455172413793104 57.83218390804598 11.455172413793104Q57.83218390804598 11.455172413793104 57.83218390804598 11.480459770114942Q57.83218390804598 11.859770114942528 58.03448275862069 12.188505747126436Q58.236781609195404 12.517241379310345 58.603448275862064 12.757471264367815Q58.97011494252873 12.997701149425286 59.51379310344827 13.124137931034483Q60.05747126436781 13.250574712643678 60.76551724137931 13.250574712643678ZM60.714942528735634 8.926436781609194Q59.47586206896551 8.926436781609194 58.666666666666664 9.368965517241378Q57.85747126436782 9.811494252873562 57.85747126436782 10.620689655172413Q57.85747126436782 10.645977011494253 57.85747126436782 10.658620689655173Q57.85747126436782 10.671264367816091 57.85747126436782 10.671264367816091Q57.85747126436782 10.671264367816091 57.87011494252874 10.671264367816091Q57.88275862068966 10.671264367816091 57.88275862068966 10.671264367816091H63.52183908045977Q63.54712643678161 10.671264367816091 63.54712643678161 10.658620689655173Q63.54712643678161 10.645977011494253 63.54712643678161 10.620689655172413Q63.54712643678161 10.216091954022987 63.33218390804598 9.899999999999999Q63.11724137931034 9.583908045977012 62.737931034482756 9.368965517241378Q62.35862068965517 9.154022988505746 61.84022988505747 9.040229885057471Q61.32183908045977 8.926436781609194 60.714942528735634 8.926436781609194Z M81.09655172413792 3.2873563218390807Q81.09655172413792 4.804597701149424 81.09655172413792 6.334482758620688Q81.09655172413792 7.864367816091953 81.09655172413792 9.394252873563218Q81.09655172413792 10.924137931034481 81.09655172413792 12.466666666666665Q81.09655172413792 14.085057471264367 81.09655172413792 15.703448275862069Q81.09655172413792 17.32183908045977 81.09655172413792 18.96551724137931H72.34712643678161Q72.34712643678161 16.46206896551724 72.34712643678161 13.958620689655172Q72.34712643678161 11.455172413793104 72.34712643678161 8.951724137931034Q72.34712643678161 7.535632183908046 72.34712643678161 6.119540229885057Q72.34712643678161 4.703448275862069 72.34712643678161 3.2873563218390807ZM81.07126436781608 12.947126436781609 82.43678160919539 6.144827586206896Q82.66436781609195 5.057471264367816 83.33448275862068 4.336781609195402Q84.00459770114942 3.6160919540229877 84.91494252873562 3.2367816091954023Q85.82528735632184 2.857471264367817 86.78620689655172 2.76896551724138Q87.7471264367816 2.6804597701149433 88.55632183908045 2.844827586206897Q89.36551724137931 3.0091954022988503 89.84597701149424 3.3885057471264357L87.92413793103448 12.795402298850574Q87.19080459770115 12.188505747126436 86.14137931034483 11.960919540229884Q85.0919540229885 11.733333333333333 84.02988505747126 11.796551724137931Q82.96781609195402 11.859770114942528 82.15862068965517 12.163218390804596Q81.34942528735631 12.466666666666665 81.07126436781608 12.947126436781609Z M102.00919540229884 18.96551724137931Q102.00919540229884 16.99310344827586 102.00919540229884 14.970114942528735Q102.00919540229884 12.947126436781609 102.00919540229884 10.97471264367816Q102.00919540229884 10.241379310344827 101.64252873563217 9.937931034482759Q101.27586206896551 9.634482758620688 100.77011494252872 9.60919540229885Q100.26436781609195 9.583908045977012 99.84712643678161 9.735632183908045Q99.42988505747127 9.88735632183908 99.3287356321839 10.039080459770114L101.35172413793103 3.540229885057471Q102.26206896551724 3.1356321839080454 103.29885057471265 2.9333333333333327Q104.33563218390805 2.73103448275862 105.34712643678161 2.73103448275862Q106.7632183908046 2.73103448275862 107.98965517241379 3.186206896551724Q109.21609195402299 3.6413793103448278 109.98735632183909 4.627586206896551Q110.75862068965517 5.613793103448275 110.75862068965517 7.257471264367815V18.96551724137931ZM90.57931034482759 18.96551724137931Q90.57931034482759 17.347126436781608 90.57931034482759 15.716091954022987Q90.57931034482759 14.085057471264367 90.57931034482759 12.454022988505747Q90.57931034482759 10.822988505747126 90.57931034482759 9.204597701149424Q90.57931034482759 7.712643678160919 90.57931034482759 6.233333333333333Q90.57931034482759 4.7540229885057474 90.57931034482759 3.2873563218390807Q92.04597701149424 3.2873563218390807 93.5 3.2873563218390807Q94.95402298850574 3.2873563218390807 96.42068965517241 3.2873563218390807Q97.88735632183908 3.2873563218390807 99.3287356321839 3.2873563218390807Q99.3287356321839 4.197701149425287 99.3287356321839 5.019540229885057Q99.3287356321839 5.841379310344827 99.3287356321839 6.663218390804597Q99.3287356321839 7.485057471264367 99.3287356321839 8.306896551724137Q99.3287356321839 9.128735632183908 99.3287356321839 10.039080459770114Q99.3287356321839 10.367816091954023 99.3287356321839 10.683908045977011Q99.3287356321839 11.0 99.3287356321839 11.354022988505747Q99.3287356321839 13.22528735632184 99.3287356321839 15.197701149425287Q99.3287356321839 17.170114942528734 99.3287356321839 18.96551724137931Z M111.7448275862069 0.0H131.64597701149424Q133.34022988505745 0.0 134.45287356321836 0.6448275862068957Q135.5655172413793 1.2896551724137915 136.13448275862066 2.301149425287355Q136.70344827586206 3.312643678160919 136.70344827586206 4.425287356321839Q136.70344827586206 5.537931034482758 136.12183908045978 6.5873563218390805Q135.54022988505747 7.636781609195403 134.36436781609194 8.294252873563218Q133.18850574712644 8.951724137931034 131.4183908045977 8.951724137931034Q131.4183908045977 8.951724137931034 131.40574712643678 8.951724137931034Q131.39310344827587 8.951724137931034 131.40574712643678 8.964367816091954Q131.4183908045977 8.977011494252872 131.4183908045977 8.977011494252872Q133.46666666666667 8.977011494252872 134.80689655172415 9.710344827586205Q136.1471264367816 10.44367816091954 136.80459770114942 11.581609195402297Q137.46206896551723 12.719540229885057 137.46206896551723 13.98390804597701Q137.46206896551723 14.919540229885056 137.09540229885056 15.804597701149426Q136.7287356321839 16.689655172413794 135.9954022988506 17.410344827586208Q135.26206896551724 18.13103448275862 134.17471264367816 18.548275862068962Q133.08735632183908 18.96551724137931 131.64597701149424 18.96551724137931H111.7448275862069Q111.7448275862069 17.24597701149425 111.7448275862069 15.539080459770114Q111.7448275862069 13.832183908045977 111.7448275862069 12.112643678160918Q111.7448275862069 10.39310344827586 111.7448275862069 8.686206896551724Q111.7448275862069 6.979310344827585 111.7448275862069 5.259770114942528Q111.7448275862069 3.9448275862068964 111.7448275862069 2.629885057471264Q111.7448275862069 1.3149425287356316 111.7448275862069 0.0ZM121.7080459770115 9.963218390804597Q121.7080459770115 10.241379310344827 121.7080459770115 10.519540229885056Q121.7080459770115 10.797701149425286 121.7080459770115 11.075862068965517Q121.7080459770115 11.27816091954023 121.7080459770115 11.467816091954024Q121.7080459770115 11.657471264367816 121.7080459770115 11.83448275862069Q121.7080459770115 12.011494252873563 121.7080459770115 12.188505747126436Q121.7080459770115 12.213793103448275 121.7080459770115 12.213793103448275Q121.7080459770115 12.213793103448275 121.73333333333332 12.213793103448275H125.32413793103447Q126.00689655172413 12.213793103448275 126.34827586206896 11.859770114942528Q126.68965517241378 11.50574712643678 126.68965517241378 11.050574712643677Q126.68965517241378 10.822988505747126 126.61379310344827 10.633333333333333Q126.53793103448275 10.44367816091954 126.39885057471264 10.279310344827586Q126.25977011494253 10.114942528735632 126.04482758620689 10.026436781609195Q125.82988505747126 9.937931034482759 125.55172413793103 9.937931034482759H121.73333333333332Q121.73333333333332 9.937931034482759 121.72068965517241 9.950574712643679Q121.7080459770115 9.963218390804597 121.7080459770115 9.963218390804597ZM121.73333333333332 6.397701149425286Q121.7080459770115 6.397701149425286 121.7080459770115 6.410344827586206Q121.7080459770115 6.422988505747126 121.7080459770115 6.422988505747126Q121.7080459770115 6.5747126436781596 121.7080459770115 6.764367816091953Q121.7080459770115 6.954022988505747 121.7080459770115 7.143678160919539Q121.7080459770115 7.333333333333332 121.7080459770115 7.535632183908046Q121.7080459770115 7.813793103448276 121.7080459770115 8.104597701149425Q121.7080459770115 8.395402298850573 121.7080459770115 8.648275862068965Q121.7080459770115 8.673563218390804 121.7080459770115 8.673563218390804Q121.7080459770115 8.673563218390804 121.73333333333332 8.673563218390804H125.19770114942528Q125.65287356321838 8.673563218390804 125.95632183908046 8.50919540229885Q126.25977011494253 8.344827586206897 126.41149425287355 8.079310344827586Q126.5632183908046 7.813793103448276 126.5632183908046 7.510344827586206Q126.5632183908046 7.080459770114942 126.27241379310344 6.739080459770114Q125.98160919540229 6.397701149425286 125.42528735632183 6.397701149425286Z M149.32183908045977 19.72413793103448Q147.75402298850574 19.72413793103448 146.28735632183907 19.49655172413793Q144.8206896551724 19.26896551724138 143.55632183908045 18.801149425287356Q142.29195402298848 18.333333333333332 141.25517241379308 17.625287356321838Q140.21839080459768 16.917241379310344 139.48505747126435 15.96896551724138Q138.75172413793103 15.020689655172413 138.3471264367816 13.819540229885057Q137.94252873563218 12.6183908045977 137.94252873563218 11.151724137931033Q137.94252873563218 9.432183908045976 138.51149425287355 8.054022988505746Q139.08045977011494 6.675862068965516 140.12988505747126 5.639080459770114Q141.17931034482757 4.602298850574712 142.59540229885056 3.906896551724137Q144.01149425287355 3.211494252873562 145.71839080459768 2.8701149425287342Q147.42528735632183 2.5287356321839063 149.32183908045977 2.5287356321839063Q151.69885057471262 2.5287356321839063 153.7597701149425 3.072413793103447Q155.8206896551724 3.6160919540229877 157.3758620689655 4.690804597701149Q158.9310344827586 5.76551724137931 159.81609195402297 7.3839080459770114Q160.70114942528735 9.002298850574713 160.70114942528735 11.151724137931033Q160.70114942528735 13.301149425287356 159.81609195402297 14.906896551724138Q158.9310344827586 16.51264367816092 157.3758620689655 17.58735632183908Q155.8206896551724 18.66206896551724 153.7597701149425 19.19310344827586Q151.69885057471262 19.72413793103448 149.32183908045977 19.72413793103448ZM149.3471264367816 13.022988505747126Q150.91494252873562 13.022988505747126 151.57241379310344 12.416091954022988Q152.22988505747125 11.809195402298851 152.22988505747125 11.101149425287357Q152.22988505747125 10.772413793103448 152.0781609195402 10.44367816091954Q151.92643678160917 10.114942528735632 151.59770114942526 9.836781609195402Q151.26896551724136 9.558620689655172 150.7126436781609 9.394252873563218Q150.15632183908045 9.229885057471265 149.3471264367816 9.229885057471265Q148.53793103448274 9.229885057471265 147.96896551724137 9.394252873563218Q147.39999999999998 9.558620689655172 147.05862068965516 9.836781609195402Q146.71724137931034 10.114942528735632 146.5655172413793 10.44367816091954Q146.41379310344826 10.772413793103448 146.41379310344826 11.126436781609195Q146.41379310344826 11.480459770114942 146.5655172413793 11.821839080459771Q146.71724137931034 12.163218390804598 147.07126436781607 12.428735632183908Q147.42528735632183 12.694252873563219 147.98160919540229 12.858620689655172Q148.53793103448274 13.022988505747126 149.3471264367816 13.022988505747126Z M168.0344827586207 22.0Q168.4896551724138 21.49425287356322 168.91954022988506 20.98850574712644Q169.34942528735633 20.482758620689655 169.7919540229885 19.97701149425287Q170.2344827586207 19.47126436781609 170.66436781609195 18.96551724137931H165.93563218390804Q165.10114942528736 16.335632183908046 164.26666666666668 13.73103448275862Q163.432183908046 11.126436781609195 162.5977011494253 8.50919540229885Q161.7632183908046 5.8919540229885055 160.92873563218393 3.2873563218390807H170.20919540229886Q170.66436781609195 5.993103448275862 171.10689655172416 8.698850574712644Q171.54942528735634 11.404597701149424 172.00459770114944 14.110344827586207Q172.00459770114944 14.110344827586207 172.01724137931035 14.186206896551724Q172.02988505747126 14.26206896551724 172.02988505747126 14.26206896551724Q172.02988505747126 14.26206896551724 172.04252873563217 14.224137931034482Q172.05517241379312 14.186206896551724 172.05517241379312 14.160919540229884Q172.05517241379312 14.135632183908045 172.05517241379312 14.135632183908045Q172.38390804597702 12.314942528735632 172.6873563218391 10.506896551724138Q172.99080459770116 8.698850574712644 173.30689655172415 6.890804597701149Q173.62298850574714 5.0827586206896544 173.9264367816092 3.2873563218390807H182.7264367816092Q181.71494252873563 6.422988505747126 180.69080459770117 9.533333333333331Q179.66666666666669 12.643678160919539 178.6551724137931 15.754022988505746Q177.64367816091954 18.864367816091953 176.60689655172413 22.0Z M182.95402298850576 8.294252873563218Q182.95402298850576 6.85287356321839 183.77586206896552 5.790804597701149Q184.5977011494253 4.728735632183907 186.01379310344828 4.008045977011494Q187.42988505747127 3.2873563218390807 189.22528735632184 2.9333333333333336Q191.02068965517242 2.5793103448275865 192.96781609195403 2.5793103448275865Q195.37011494252874 2.5793103448275865 197.4310344827586 3.0091954022988503Q199.4919540229885 3.439080459770114 201.16091954022988 4.147126436781608V10.013793103448275Q200.4528735632184 9.482758620689655 199.30229885057472 9.103448275862068Q198.15172413793104 8.724137931034482 196.87471264367815 8.52183908045977Q195.5977011494253 8.319540229885057 194.45977011494253 8.319540229885057Q193.70114942528735 8.319540229885057 193.08160919540228 8.408045977011493Q192.46206896551723 8.49655172413793 192.09540229885056 8.673563218390804Q191.7287356321839 8.850574712643677 191.7287356321839 9.128735632183908Q191.7287356321839 9.280459770114941 191.8425287356322 9.356321839080458Q191.95632183908046 9.432183908045976 192.183908045977 9.457471264367815Q192.41149425287355 9.482758620689655 192.7655172413793 9.482758620689655Q193.3471264367816 9.482758620689655 193.8022988505747 9.482758620689655Q194.2574712643678 9.482758620689655 194.81379310344826 9.482758620689655Q196.07816091954024 9.482758620689655 197.35517241379313 9.647126436781608Q198.632183908046 9.811494252873562 199.6816091954023 10.291954022988506Q200.73103448275862 10.772413793103448 201.3632183908046 11.670114942528734Q201.99540229885056 12.567816091954022 201.99540229885056 14.034482758620689Q201.99540229885056 15.577011494252872 201.14827586206894 16.651724137931033Q200.30114942528735 17.726436781609195 198.8471264367816 18.39655172413793Q197.39310344827587 19.066666666666666 195.58505747126435 19.370114942528737Q193.77701149425286 19.673563218390804 191.82988505747127 19.673563218390804Q189.5287356321839 19.673563218390804 187.29080459770114 19.24367816091954Q185.05287356321838 18.813793103448276 183.45977011494253 17.979310344827585V11.809195402298851Q184.09195402298852 12.491954022988505 185.26781609195405 12.934482758620689Q186.44367816091955 13.377011494252873 187.82183908045977 13.591954022988505Q189.2 13.806896551724137 190.41379310344828 13.806896551724137Q191.19770114942528 13.806896551724137 191.82988505747124 13.7183908045977Q192.46206896551723 13.629885057471263 192.8287356321839 13.44022988505747Q193.19540229885058 13.250574712643678 193.19540229885058 12.947126436781609Q193.19540229885058 12.820689655172412 193.11954022988505 12.770114942528735Q193.04367816091954 12.719540229885057 192.8793103448276 12.694252873563219Q192.71494252873563 12.668965517241379 192.4367816091954 12.668965517241379Q192.05747126436782 12.668965517241379 191.6528735632184 12.668965517241379Q191.24827586206897 12.668965517241379 190.91954022988506 12.668965517241379Q190.0344827586207 12.668965517241379 188.95977011494253 12.605747126436782Q187.88505747126436 12.542528735632184 186.8229885057471 12.327586206896552Q185.76091954022988 12.112643678160918 184.88850574712643 11.644827586206896Q184.01609195402298 11.177011494252874 183.48505747126438 10.355172413793102Q182.95402298850576 9.533333333333333 182.95402298850576 8.294252873563218Z " fill="rgb(255,255,255)" transform="translate(45.839770625467985, 6.919974912160557)" /></g></svg>